<svg xmlns="http://www.w3.org/2000/svg" viewBox="0 0 56.49 75.5"><defs><style>.cls-1{fill:#0b629c;}.cls-2{fill:#f4f4f4;}</style></defs><title>Recurso 2</title><g id="Capa_2" data-name="Capa 2"><g id="Capa_1-2" data-name="Capa 1"><path class="cls-1" d="M14.68,38.27l.68,0a4.37,4.37,0,0,0,4.06-4.63l-.12-1.9a4.37,4.37,0,0,0-4.63-4.06l-.68,0a4.37,4.37,0,0,0-4.06,4.63l.12,1.9A4.37,4.37,0,0,0,14.68,38.27Zm-.15-7.49c.9-.06,1.7.87,1.78,2.06a2,2,0,0,1-1.49,2.28c-.9.06-1.7-.87-1.78-2.06A2,2,0,0,1,14.53,30.78Z"/><ellipse class="cls-2" cx="41.08" cy="31.23" rx="1.64" ry="2.18" transform="translate(-1.95 2.75) rotate(-3.74)"/><path class="cls-1" d="M12,74.92l0,.58,37.11-2.42,0-.58a7.25,7.25,0,0,1,6.76-7.71l.58,0L52.74,7.31l-.58,0A7.2,7.2,0,0,1,46.9,5.56a7.2,7.2,0,0,1-2.45-5l0-.58L7.31,2.42l0,.58A7.2,7.2,0,0,1,5.56,8.26a7.2,7.2,0,0,1-5,2.45l-.58,0L3.75,68.2l.58,0A7.25,7.25,0,0,1,12,74.92ZM1.24,11.82A8.36,8.36,0,0,0,6.44,9,8.36,8.36,0,0,0,8.53,3.51L43.34,1.24a8.35,8.35,0,0,0,2.79,5.2,8.36,8.36,0,0,0,5.52,2.09l3.6,55.15A8.42,8.42,0,0,0,48,72L13.15,74.26A8.42,8.42,0,0,0,4.84,67Z"/><path class="cls-1" d="M14.32,71.54l.32.78,31.6-2.06.21-.82a10.32,10.32,0,0,1,6.08-6.92l.78-.32L49.91,10.26,49.1,10A10.33,10.33,0,0,1,42.17,4l-.32-.78L10.26,5.25,10,6.06A10.33,10.33,0,0,1,4,13l-.78.32L6.58,65.25l.82.21A10.33,10.33,0,0,1,14.32,71.54ZM8.51,59l1.1-.07-.06-1L8.44,58,6,19.81l.38,0-.06-1-.37,0-.26-4a12.7,12.7,0,0,0,6.43-7.33L40.35,5.63a12.7,12.7,0,0,0,7.33,6.44l.26,4-.42,0,0,.29h0l0,.39h0l0,.29.42,0L50.86,60.7A12.69,12.69,0,0,0,44.43,68L16.13,69.88A12.69,12.69,0,0,0,8.8,63.44Z"/><rect class="cls-1" x="20.79" y="17.83" width="1.12" height="0.97" transform="matrix(1, -0.07, 0.07, 1, -1.15, 1.43)"/><rect class="cls-1" x="18.56" y="17.97" width="1.12" height="0.97" transform="matrix(1, -0.06, 0.06, 1, -1.15, 1.27)"/><rect class="cls-1" x="25.26" y="17.54" width="1.12" height="0.97" transform="matrix(1, -0.06, 0.06, 1, -1.11, 1.71)"/><rect class="cls-1" x="7.41" y="18.7" width="1.12" height="0.97" transform="translate(-1.23 0.56) rotate(-3.74)"/><rect class="cls-1" x="14.1" y="18.27" width="1.12" height="0.97" transform="translate(-1.19 0.99) rotate(-3.74)"/><rect class="cls-1" x="16.33" y="18.12" width="1.12" height="0.97" transform="translate(-1.18 1.14) rotate(-3.74)"/><rect class="cls-1" x="11.87" y="18.41" width="1.12" height="0.97" transform="translate(-1.2 0.85) rotate(-3.74)"/><rect class="cls-1" x="23.03" y="17.68" width="1.12" height="0.97" transform="translate(-1.13 1.58) rotate(-3.74)"/><rect class="cls-1" x="27.49" y="17.39" width="1.12" height="0.97" transform="translate(-1.1 1.85) rotate(-3.71)"/><rect class="cls-1" x="43.1" y="16.37" width="1.12" height="0.97" transform="translate(-1.01 2.88) rotate(-3.74)"/><rect class="cls-1" x="40.87" y="16.52" width="1.12" height="0.97" transform="matrix(1, -0.07, 0.07, 1, -1.02, 2.74)"/><rect class="cls-1" x="45.33" y="16.23" width="1.12" height="0.97" transform="translate(-1 3.05) rotate(-3.77)"/><rect class="cls-1" x="31.95" y="17.1" width="1.12" height="0.97" transform="matrix(1, -0.06, 0.06, 1, -1.07, 2.14)"/><rect class="cls-1" x="29.72" y="17.25" width="1.12" height="0.97" transform="translate(-1.08 2) rotate(-3.71)"/><rect class="cls-1" x="34.18" y="16.96" width="1.12" height="0.97" transform="translate(-1.06 2.28) rotate(-3.71)"/><rect class="cls-1" x="38.64" y="16.66" width="1.12" height="0.97" transform="matrix(1, -0.07, 0.07, 1, -1.03, 2.59)"/><rect class="cls-1" x="36.41" y="16.81" width="1.12" height="0.98" transform="translate(-1.04 2.43) rotate(-3.71)"/><rect class="cls-1" x="9.64" y="18.56" width="1.12" height="0.97" transform="translate(-1.22 0.7) rotate(-3.73)"/><rect class="cls-1" x="41.92" y="55.76" width="1.12" height="0.97" transform="translate(-3.57 2.88) rotate(-3.73)"/><rect class="cls-1" x="48.61" y="55.32" width="1.12" height="0.97" transform="translate(-3.53 3.32) rotate(-3.74)"/><rect class="cls-1" x="46.38" y="55.47" width="1.12" height="0.97" transform="translate(-3.55 3.18) rotate(-3.73)"/><rect class="cls-1" x="35.23" y="56.2" width="1.12" height="0.97" transform="matrix(1, -0.07, 0.07, 1, -3.61, 2.45)"/><rect class="cls-1" x="39.69" y="55.91" width="1.12" height="0.97" transform="matrix(1, -0.07, 0.07, 1, -3.58, 2.74)"/><rect class="cls-1" x="44.15" y="55.61" width="1.12" height="0.97" transform="translate(-3.56 3.03) rotate(-3.74)"/><rect class="cls-1" x="12.92" y="57.65" width="1.12" height="0.97" transform="translate(-3.75 1) rotate(-3.73)"/><rect class="cls-1" x="33" y="56.34" width="1.12" height="0.97" transform="translate(-3.63 2.31) rotate(-3.74)"/><rect class="cls-1" x="21.84" y="57.07" width="1.12" height="0.97" transform="translate(-3.73 1.59) rotate(-3.76)"/><rect class="cls-1" x="17.38" y="57.36" width="1.12" height="0.97" transform="translate(-3.73 1.29) rotate(-3.74)"/><rect class="cls-1" x="15.15" y="57.51" width="1.12" height="0.97" transform="matrix(1, -0.07, 0.07, 1, -3.74, 1.15)"/><rect class="cls-1" x="10.69" y="57.8" width="1.12" height="0.97" transform="translate(-3.77 0.86) rotate(-3.73)"/><rect class="cls-1" x="19.61" y="57.22" width="1.12" height="0.97" transform="translate(-3.72 1.44) rotate(-3.73)"/><rect class="cls-1" x="24.07" y="56.92" width="1.12" height="0.97" transform="translate(-3.69 1.73) rotate(-3.74)"/><rect class="cls-1" x="28.53" y="56.63" width="1.12" height="0.97" transform="translate(-3.68 2.03) rotate(-3.76)"/><rect class="cls-1" x="26.3" y="56.78" width="1.12" height="0.97" transform="translate(-3.68 1.87) rotate(-3.74)"/><rect class="cls-1" x="37.46" y="56.05" width="1.12" height="0.97" transform="translate(-3.6 2.59) rotate(-3.73)"/><rect class="cls-1" x="30.77" y="56.49" width="1.12" height="0.97" transform="translate(-3.64 2.16) rotate(-3.73)"/><path class="cls-1" d="M18.88,41.59a1.92,1.92,0,0,0-1,2.5C19.3,47.67,23.9,49.93,29,49.6s9.38-3.18,10.38-6.91a1.92,1.92,0,1,0-3.71-1c-.47,1.78-3.06,3.82-6.92,4.07s-6.69-1.43-7.39-3.14A1.92,1.92,0,0,0,18.88,41.59Z"/><path class="cls-1" d="M15.57,12.4a1,1,0,0,1,.31.78l-.09.9c0,.26.13.36.35.22l.77-.47a1,1,0,0,1,.83-.05l.83.37c.24.1.38,0,.32-.27L18.68,13a1,1,0,0,1,.21-.81l.6-.67c.17-.19.1-.37-.15-.39l-.9-.07a1,1,0,0,1-.71-.44l-.45-.78c-.13-.23-.32-.21-.42,0l-.35.84a1,1,0,0,1-.64.53L15,11.4c-.25.05-.3.23-.1.4Z"/><path class="cls-1" d="M24.89,11.79a1,1,0,0,1,.31.78l-.09.9c0,.26.13.36.35.22l.77-.47a1,1,0,0,1,.83-.05l.83.37c.24.11.38,0,.32-.27L28,12.38a1,1,0,0,1,.21-.81l.61-.67c.17-.19.1-.37-.15-.39l-.9-.07A1,1,0,0,1,27,10l-.45-.78c-.13-.22-.32-.21-.42,0l-.35.84a1,1,0,0,1-.64.53l-.88.19c-.25.05-.3.24-.1.4Z"/><path class="cls-1" d="M34.2,11.18a1,1,0,0,1,.31.77l-.09.9c0,.26.13.36.35.22l.77-.47a1,1,0,0,1,.83-.06l.83.37c.24.11.38,0,.32-.27l-.21-.88a1,1,0,0,1,.21-.81l.61-.67c.17-.19.1-.37-.15-.39l-.9-.07a1,1,0,0,1-.71-.45l-.45-.78c-.13-.22-.32-.21-.42,0l-.35.84a1,1,0,0,1-.64.53l-.88.19c-.25.05-.3.24-.1.4Z"/><path class="cls-1" d="M22.75,63.46l-.9-.07a1,1,0,0,1-.71-.44l-.45-.78c-.13-.22-.32-.21-.42,0l-.35.84a1,1,0,0,1-.64.53l-.88.19c-.25.05-.3.24-.1.4l.69.59a1,1,0,0,1,.31.77l-.09.9c0,.26.13.36.35.22l.77-.47a1,1,0,0,1,.83-.05l.83.37c.24.11.38,0,.32-.27l-.21-.88a1,1,0,0,1,.21-.81l.6-.67C23.08,63.65,23,63.48,22.75,63.46Z"/><path class="cls-1" d="M32.07,62.85l-.9-.07a1,1,0,0,1-.71-.45L30,61.55c-.13-.22-.32-.21-.42,0l-.35.83a1,1,0,0,1-.64.53l-.88.19c-.25.05-.3.24-.1.4l.69.59a1,1,0,0,1,.31.78l-.09.9c0,.26.13.36.35.22l.77-.47a1,1,0,0,1,.83-.05l.83.37c.24.11.38,0,.32-.27l-.21-.88a1,1,0,0,1,.21-.81l.6-.67C32.39,63,32.32,62.87,32.07,62.85Z"/><path class="cls-1" d="M41.38,62.24l-.9-.07a1,1,0,0,1-.71-.45l-.45-.78c-.13-.23-.32-.21-.42,0l-.35.83a1,1,0,0,1-.64.53l-.88.19c-.25.05-.3.24-.1.4l.69.59a1,1,0,0,1,.31.77l-.09.9c0,.26.13.36.35.22l.77-.47a1,1,0,0,1,.83-.05l.83.37c.24.11.38,0,.32-.27l-.21-.88a1,1,0,0,1,.21-.81l.6-.67C41.71,62.44,41.64,62.26,41.38,62.24Z"/><path class="cls-1" d="M36.33,30.58l.12,1.9a4.37,4.37,0,0,0,4.63,4.06l.68,0a4.37,4.37,0,0,0,4.06-4.63L45.7,30a4.36,4.36,0,0,0-4.63-4.06l-.68,0A4.37,4.37,0,0,0,36.33,30.58Zm4.6-1.53c.9-.06,1.7.87,1.78,2.07a2,2,0,0,1-1.49,2.28c-.9.06-1.7-.87-1.78-2.06A2,2,0,0,1,40.93,29.06Z"/><ellipse class="cls-2" cx="14.67" cy="32.95" rx="1.64" ry="2.18" transform="translate(-2.12 1.03) rotate(-3.74)"/></g></g></svg>