<svg xmlns="http://www.w3.org/2000/svg" viewBox="0 0 62.3 84.31"><defs><style>.cls-1{fill:#006eb3;}</style></defs><title>Recurso 3</title><g id="Capa_2" data-name="Capa 2"><g id="Capa_1-2" data-name="Capa 1"><path class="cls-1" d="M59.9,32.63a.5.5,0,0,0-.7.71,1.27,1.27,0,0,1,.27,1.33.5.5,0,0,0,.27.65l.09,0h.05a.5.5,0,0,0,.51-.31A2.28,2.28,0,0,0,59.9,32.63Z"/><path class="cls-1" d="M4.44,23.31A1.61,1.61,0,0,1,3.81,22a1.54,1.54,0,0,1,.51-1.31.58.58,0,0,0,.16-.75.55.55,0,0,0-.68-.26c-1,.38-1.17,1.83-1.21,2.31a2.56,2.56,0,0,0,1.22,2.45.6.6,0,0,0,.28.1.55.55,0,0,0,.31-.06.68.68,0,0,0,.35-.58A.65.65,0,0,0,4.44,23.31Z"/><path class="cls-1" d="M12.53,17.17c-.88-.24-1.36-.72-1.43-1.41A1.72,1.72,0,0,1,12.24,14a.4.4,0,0,0,.24-.52.4.4,0,0,0-.51-.26A2.66,2.66,0,0,0,10,15.83a2.7,2.7,0,0,0,2.25,2.51h0a.6.6,0,0,0,.22-1.18Z"/><path class="cls-1" d="M12.35,9.32A.4.4,0,0,0,12,8.87a3.89,3.89,0,0,0-2.52.33c-.29.14-1.72.9-1.83,1.94a.48.48,0,0,0,.23.47.42.42,0,0,0,.18.06.44.44,0,0,0,.3-.08,1.78,1.78,0,0,0,.44-.47L9,10.93a3.69,3.69,0,0,1,.82-.72,3.22,3.22,0,0,1,2.1-.52A.42.42,0,0,0,12.35,9.32Z"/><path class="cls-1" d="M29,4.43a.39.39,0,0,0-.53.58,3.81,3.81,0,0,1,.83,3.09,4.92,4.92,0,0,1-.47,1.2,5.05,5.05,0,0,0-.54,1.43.46.46,0,0,0,.25.48l.15,0a.44.44,0,0,0,.37-.15,5.28,5.28,0,0,0,1.28-3.78A4.15,4.15,0,0,0,29,4.43Z"/><path class="cls-1" d="M18.12,21a2.85,2.85,0,0,0-1.56,1.79,2.37,2.37,0,0,0,.27,2,.45.45,0,0,0,.33.21.47.47,0,0,0,.24,0,.46.46,0,0,0,.25-.55h0a2.41,2.41,0,0,1-.13-1.51,2.25,2.25,0,0,1,1-1.19.39.39,0,0,0,.12-.51A.37.37,0,0,0,18.12,21Z"/><path class="cls-1" d="M61.17,31.6a2.92,2.92,0,0,0,1-2.11,4.24,4.24,0,0,0-1.75-3.88A5.38,5.38,0,0,0,59.16,25c.5-1.68,1.45-6.39-2.77-8.27-4.06-1.82-7.2.8-8.23,1.85a2.47,2.47,0,0,0-1.42-.47c-.15-4.55-1.87-7.19-5.39-8.29-2.75-.86-6.27-.3-7.86,2.4a3.61,3.61,0,0,0-1.37-1.11,7.52,7.52,0,0,0,.35-5.59,8,8,0,0,0-10.56-5c-1.28.58-2.87,2.15-2.81,3.7a5.49,5.49,0,0,0-2.9,0c-1,.37-2.61,1.4-2.8,2.69A6.57,6.57,0,0,0,6.51,8.38,8.44,8.44,0,0,0,4.3,16.43a4.33,4.33,0,0,0-3.5,3.13A8,8,0,0,0,2.66,27a22.12,22.12,0,0,0-2.26.84.63.63,0,0,0-.4.62l3.42,46,0,.26a1.72,1.72,0,0,0,.67,1.52c2.06,1.79,5.2,2.91,7.72,3.8l.5.18A69.48,69.48,0,0,0,29,84a54.7,54.7,0,0,0,10.47,0c1-.09,1.26-.12,1.72-1s1-2.07,1.44-3.1c.22-.51.45-1,.68-1.55l15.8-34.75c.23-.51.48-1,.72-1.53.48-1,1-2.06,1.4-3.12a1.37,1.37,0,0,0-.46-1.82,3.53,3.53,0,0,0,1.26-1.65,3.63,3.63,0,0,0-.39-3.32A4.47,4.47,0,0,0,61.17,31.6ZM4.51,73.28c0-.36,0-.69,0-1L3.2,54.88,1.61,33.47a79.17,79.17,0,0,1,8.25-.74l-.19,6.9a5.08,5.08,0,0,0-2.56,4l-.18,2.28a5.11,5.11,0,0,0,2.81,5H9.44l-.09,4c-1.21.46-1.89,1.1-2,1.89-.09.62.18,1.45,1.91,1.91L8.87,75.08c-2.08-.13-3.6-.17-4.29-.18A10,10,0,0,1,4.51,73.28ZM20,20.49a2.89,2.89,0,0,1,.43-2.9,2.37,2.37,0,0,1,2.37-.77,2.55,2.55,0,0,1,1.94,1.86A2.27,2.27,0,0,1,24,21a.5.5,0,0,0,0,.74.62.62,0,0,0,.88.06,3.36,3.36,0,0,0,.59-.68,3.6,3.6,0,0,1,.77,4.05,2.3,2.3,0,0,1-.59.73.5.5,0,0,0-.24.18,2.61,2.61,0,0,1-2.84-.1A2.9,2.9,0,0,0,23,24.36a.57.57,0,0,0-.57-.56.56.56,0,0,0-.62.49l0,.18c0,.45-.08.87-.44,1.11a3.89,3.89,0,0,1-1.13.43l-.06,0a.39.39,0,0,0-.3.42.46.46,0,0,0,.43.41h.16a1.21,1.21,0,0,1-1.27,1.25,1.68,1.68,0,0,1-1.7-1.34.4.4,0,0,0,.29-.36A.42.42,0,0,0,17.5,26c-1.88-.78-2.49-1.9-2-3.65a3.49,3.49,0,0,1,3.16-2.72,3.59,3.59,0,0,0,.45,1.28h0a.43.43,0,0,0,.58.16A.44.44,0,0,0,20,20.49Zm26.2,25.3a5.12,5.12,0,0,0-.6-.19l-.79-.19a5.09,5.09,0,0,0-6.15,3.72l-.54,2.22a5.1,5.1,0,0,0,3.72,6.15l.79.19a4.68,4.68,0,0,0,.73.12h.21l-1.2,3.39a12.16,12.16,0,0,0-2.46-1.52.32.32,0,0,0-.43.16.31.31,0,0,0,.15.42A9.15,9.15,0,0,1,42.07,62l-.26.72a8.13,8.13,0,0,0-3-1.87l-.14,0c-1-.36-2.09-.65-2.61-.27a.89.89,0,0,0-.4.83c.1,1.21,2.38,2.71,2.85,2.95a11.82,11.82,0,0,0,2.43.83L35.4,80.36c-1.78-.69-3.69-1.33-5.7-1.9l11.47-42a76.36,76.36,0,0,1,9,3.34l-2.51,6.84A5.06,5.06,0,0,0,46.17,45.79Zm-.43,6.27c-.36,1.47-1.57,2.44-2.7,2.17l-.19-.06a2.6,2.6,0,0,1-1.2-3.11,3.22,3.22,0,0,1,1-1.73,2,2,0,0,1,1.42-.48l.24,0A1.88,1.88,0,0,1,45.61,50,3.21,3.21,0,0,1,45.74,52.06ZM42.69,62.81c.28.54.36.94.21,1.18a1,1,0,0,1-.81.32l.57-1.56Zm-1.2.8-.24.66a8.83,8.83,0,0,1-2.37-.69,5.59,5.59,0,0,1-1.42-1l0,0A.89.89,0,0,1,37,61.34l.62.1a7.65,7.65,0,0,1,3.75,2.09ZM28.92,78.25c-1.84-.5-3.78-1-5.78-1.35l2.17-12.11.13,0A6.43,6.43,0,0,0,29.31,64a4.73,4.73,0,0,0,2.37-3.27,4.55,4.55,0,0,0,.06-.53,1.52,1.52,0,1,0-3-.15,1.5,1.5,0,0,1,0,.17c-.17,1-1.4,1.66-2.8,1.58L31.19,34.1a86,86,0,0,1,9.2,2.14Zm3.5-47.69a1.57,1.57,0,1,1-1.22-1.85A1.57,1.57,0,0,1,32.42,30.56Zm-2,3.41-5.32,27.7c-1.39-.37-2.38-1.44-2.21-2.46a1.56,1.56,0,0,1,0-.16A1.52,1.52,0,1,0,20,58.16a4.53,4.53,0,0,0-.12.52A4.73,4.73,0,0,0,21,62.56a6.46,6.46,0,0,0,3.51,2.1L22.35,76.75c-1.89-.36-3.86-.67-5.86-.93L21,32.87C24.2,33.09,27.35,33.46,30.39,34ZM20.21,32.82l-4.53,42.9c-2-.24-4-.44-6-.58l.38-16.32a12.15,12.15,0,0,0,2.24.13c.6,0,3.16-.52,3.75-1.56a.92.92,0,0,0,0-.92c-.31-.59-1.57-.71-2.24-.77l-.18,0a8,8,0,0,0-3.52.44l0-.77a9.72,9.72,0,0,1,2.72-.51.31.31,0,0,0,.3-.33.32.32,0,0,0-.33-.31,12,12,0,0,0-2.67.39l.08-3.51a5,5,0,0,0,1.28.29h.08l.81.06a5.1,5.1,0,0,0,5.47-4.67l.18-2.28A5.09,5.09,0,0,0,14,39.13h0A5.42,5.42,0,0,0,13.4,39L12.59,39a5.05,5.05,0,0,0-2.09.28l.18-6.55C13.43,32.6,16.65,32.61,20.21,32.82ZM10.08,58l0-.86a7.69,7.69,0,0,1,4.14-.4c.41.08.57.19.59.27s0,.22-.51.62a4.25,4.25,0,0,1-2.07.59A8.41,8.41,0,0,1,10.08,58ZM10.41,45a3.21,3.21,0,0,1,.75-1.88,1.79,1.79,0,0,1,3,.23,3.2,3.2,0,0,1,.45,2C14.49,46.89,13.45,48,12.29,48l-.2,0A2.6,2.6,0,0,1,10.41,45ZM9.28,57.71c-.51-.2-.82-.45-.87-.72s.31-.76.63-1a2.65,2.65,0,0,1,.29-.21ZM6.35,76.43C20,81.76,36.87,83.18,36.87,83.18,22.27,84,6.35,76.43,6.35,76.43Zm33.9,5.82c0,.07-.07.16-.1.25-1.25-.65-2.59-1.26-4-1.84l5.6-15.43c1.51.13,2-.48,2.18-1a2.48,2.48,0,0,0-.94-2.4l1.42-4A5.1,5.1,0,0,0,48.75,54l.54-2.22a5.08,5.08,0,0,0-1-4.48l2.61-7.13a68.64,68.64,0,0,1,6.87,3.64ZM59.5,36.67v0h0Zm1.41-1.57a2.31,2.31,0,0,1-1.37,1.37c-11-5.82-21.15-9.22-31-10.37L27.22,26h-.1a4.52,4.52,0,0,0,.49-3.37c-.41-1.85-1.12-2.41-1.72-2.52a3.62,3.62,0,0,0-.5-2.7,3.75,3.75,0,0,0-2.58-1.73,3.54,3.54,0,0,0-4.12,3.05c-2.07-.27-3.91,1.7-4.36,3.81a4.48,4.48,0,0,0,.54,3.05,43.94,43.94,0,0,0-10.76,1A6,6,0,0,1,1.6,20.85a4.34,4.34,0,0,1,3-3.64,6.9,6.9,0,0,0,.59,1.15.4.4,0,0,0,.52.14.39.39,0,0,0,.2-.49,8.35,8.35,0,0,1,.95-8.14,5.37,5.37,0,0,1,3.7-2,5.29,5.29,0,0,1,4,1.28.57.57,0,0,0,.81,0,.59.59,0,0,0,0-.84,5.63,5.63,0,0,0-.85-.7c.09-.89,1.08-1.68,2.05-2.08a3.17,3.17,0,0,1,3.47.74.51.51,0,0,0,.58.15.45.45,0,0,0,.28-.47,1.49,1.49,0,0,0-.58-1.07A2.78,2.78,0,0,1,21,2.69a5.45,5.45,0,0,1,3.88-1.53,7.23,7.23,0,0,1,4.62,1.74,6.64,6.64,0,0,1,.78,9,.6.6,0,0,0,.13.84.53.53,0,0,0,.75-.09,7.52,7.52,0,0,0,.47-.62,5.52,5.52,0,0,1,1.85,3.78,6.08,6.08,0,0,1-.6,3.52c-.14.35-.28.71-.43,1.12a.4.4,0,0,0,.14.44.33.33,0,0,0,.41,0c2-1.44,2.28-5.15,1.21-7.58A5.82,5.82,0,0,1,36.78,11a6.61,6.61,0,0,1,4.75.18c3.39,1.33,3.93,4.38,4,7.21a3,3,0,0,0-1.2,1,.39.39,0,0,0,.06.53.38.38,0,0,0,.52,0,2.08,2.08,0,0,1,1.95-.55,1.74,1.74,0,0,1,1.2,1.26,4.38,4.38,0,0,1-.37,3.3,3.13,3.13,0,0,0-2.43,1.18.62.62,0,0,0,.55,1,.61.61,0,0,0,.41-.23,1.94,1.94,0,0,1,1.92-.67,2,2,0,0,1,1.24.81,1.79,1.79,0,0,1,.3,1.39,1.81,1.81,0,0,1-.92,1.22.62.62,0,0,0-.3.37.62.62,0,0,0,.89.71,3,3,0,0,0,1.54-2.06A3.11,3.11,0,0,0,49,24.2a5,5,0,0,0,0-4.66,6,6,0,0,1,6.92-1.66c3.49,1.56,2.51,5.57,2,7a3.76,3.76,0,0,0-2.57,1.07.62.62,0,0,0,.92.83c.05-.06,1.35-1.41,3.51-.09a3,3,0,0,1,1.17,2.73,1.61,1.61,0,0,1-.8,1.4l-.06,0A4.07,4.07,0,0,0,58,30.38a.62.62,0,0,0-.55.67.62.62,0,0,0,.67.56,2.84,2.84,0,0,1,2.51,1.3A2.41,2.41,0,0,1,60.9,35.11Z"/><path class="cls-1" d="M56.81,22.54h.07a.5.5,0,0,0,.53-.46,3.64,3.64,0,0,0-1.23-3,.5.5,0,0,0-.63.78A2.6,2.6,0,0,1,56.41,22,.5.5,0,0,0,56.81,22.54Z"/><path class="cls-1" d="M40.94,11.83h0c-3.32-1.16-4.66.82-4.72.91a.5.5,0,0,0,.14.69.49.49,0,0,0,.18.07h.05a.5.5,0,0,0,.46-.22c0-.06,1-1.41,3.56-.51a.5.5,0,0,0,.33-.95Z"/></g></g></svg>